999
"DXF R12 Output" (www.mydxf.blogspot.com)
 0 
SECTION
 2 
HEADER
 9 
$ACADVER
 1 
AC1009
 9 
$EXTMIN
 10 
 0 
 20 
 0 
 9 
$EXTMAX
 10 
 8.5 
 20 
 11 
 0 
ENDSEC
 0 
SECTION
 2 
ENTITIES
0
LINE
8
Layer 1
10
3.000000
20
300.000000
11
-3.000000
21
294.000000
0
LINE
8
Layer 1
10
0.000000
20
302.000000
11
0.000000
21
292.000000
0
LINE
8
Layer 1
10
8.000000
20
293.000000
11
4.000000
21
289.000000
0
LINE
8
Layer 1
10
6.000000
20
295.000000
11
2.000000
21
291.000000
0
LINE
8
Layer 1
10
4.000000
20
297.000000
11
0.000000
21
293.000000
0
LINE
8
Layer 1
10
3.000000
20
300.000000
11
-3.000000
21
294.000000
0
LINE
8
Layer 1
10
0.000000
20
302.000000
11
0.000000
21
292.000000
0
LINE
8
Layer 1
10
8.000000
20
293.000000
11
4.000000
21
289.000000
0
LINE
8
Layer 1
10
6.000000
20
295.000000
11
2.000000
21
291.000000
0
LINE
8
Layer 1
10
4.000000
20
297.000000
11
0.000000
21
293.000000
0
LINE
8
Layer 1
10
3.000000
20
300.000000
11
-3.000000
21
294.000000
0
LINE
8
Layer 1
10
0.000000
20
302.000000
11
0.000000
21
292.000000
0
LINE
8
Layer 1
10
8.000000
20
293.000000
11
4.000000
21
289.000000
0
LINE
8
Layer 1
10
6.000000
20
295.000000
11
2.000000
21
291.000000
0
LINE
8
Layer 1
10
4.000000
20
297.000000
11
0.000000
21
293.000000
0
LINE
8
Layer 1
10
3.000000
20
300.000000
11
-3.000000
21
294.000000
0
LINE
8
Layer 1
10
0.000000
20
302.000000
11
0.000000
21
292.000000
0
LINE
8
Layer 1
10
8.000000
20
293.000000
11
4.000000
21
289.000000
0
LINE
8
Layer 1
10
6.000000
20
295.000000
11
2.000000
21
291.000000
0
LINE
8
Layer 1
10
4.000000
20
297.000000
11
0.000000
21
293.000000
0
LINE
8
Layer 1
10
3.000000
20
300.000000
11
-3.000000
21
294.000000
0
LINE
8
Layer 1
10
0.000000
20
302.000000
11
0.000000
21
292.000000
0
LINE
8
Layer 1
10
8.000000
20
293.000000
11
4.000000
21
289.000000
0
LINE
8
Layer 1
10
6.000000
20
295.000000
11
2.000000
21
291.000000
0
LINE
8
Layer 1
10
4.000000
20
297.000000
11
0.000000
21
293.000000
0
LINE
8
Layer 1
10
3.000000
20
300.000000
11
-3.000000
21
294.000000
0
LINE
8
Layer 1
10
0.000000
20
302.000000
11
0.000000
21
292.000000
0
LINE
8
Layer 1
10
8.000000
20
293.000000
11
4.000000
21
289.000000
0
LINE
8
Layer 1
10
6.000000
20
295.000000
11
2.000000
21
291.000000
0
LINE
8
Layer 1
10
4.000000
20
297.000000
11
0.000000
21
293.000000
0
LINE
8
Layer 1
10
3.000000
20
300.000000
11
-3.000000
21
294.000000
0
LINE
8
Layer 1
10
0.000000
20
302.000000
11
0.000000
21
292.000000
0
LINE
8
Layer 1
10
8.000000
20
293.000000
11
4.000000
21
289.000000
0
LINE
8
Layer 1
10
6.000000
20
295.000000
11
2.000000
21
291.000000
0
LINE
8
Layer 1
10
4.000000
20
297.000000
11
0.000000
21
293.000000
0
LINE
8
cut
10
46.018364
20
176.959377
11
46.018364
21
197.996900
0
LINE
8
cut
10
46.018364
20
197.996900
11
50.014224
21
197.996900
0
LINE
8
cut
10
50.014224
20
197.996900
11
50.014224
21
195.590410
0
LINE
8
cut
10
50.014224
20
195.288964
11
50.014224
21
172.001050
0
LINE
8
cut
10
50.014224
20
172.001050
11
46.018364
21
172.001050
0
LINE
8
cut
10
46.018364
20
172.001050
11
46.018364
21
176.505242
0
LINE
8
cut
10
174.014280
20
141.999710
11
166.016160
21
131.993420
0
LINE
8
cut
10
166.016160
20
131.993420
11
156.634590
21
131.993420
0
LINE
8
cut
10
155.780820
20
131.993420
11
146.016160
21
131.993420
0
LINE
8
cut
10
146.016160
20
131.993420
11
138.016160
21
141.993420
0
LINE
8
cut
10
175.015010
20
186.156468
11
175.015010
21
151.993997
0
LINE
8
cut
10
175.015010
20
151.993997
11
174.015010
21
151.993997
0
LINE
8
cut
10
174.015010
20
151.993997
11
174.015010
21
159.585978
0
LINE
8
cut
10
174.015010
20
160.495927
11
174.015010
21
191.993997
0
LINE
8
cut
10
174.015010
20
191.993997
11
175.015010
21
191.993997
0
LINE
8
cut
10
175.015010
20
191.993997
11
175.015010
21
187.005754
0
LINE
8
cut
10
30.005001
20
141.994000
11
30.005001
21
151.994000
0
LINE
8
cut
10
30.005001
20
151.994000
11
20.005002
21
156.994000
0
LINE
8
cut
10
20.005002
20
156.994000
11
20.005002
21
171.515430
0
LINE
8
cut
10
20.005002
20
172.759339
11
20.005002
21
186.994000
0
LINE
8
cut
10
20.005002
20
186.994000
11
30.005001
21
191.994000
0
LINE
8
cut
10
30.005001
20
191.994000
11
30.005001
21
201.994000
0
LINE
8
cut
10
30.005001
20
201.994000
11
34.186506
21
201.994000
0
LINE
8
cut
10
35.125798
20
201.994000
11
65.592706
21
201.994000
0
LINE
8
cut
10
66.184568
20
201.994000
11
101.962108
21
201.994000
0
LINE
8
cut
10
102.429916
20
201.994000
11
137.991820
21
201.994000
0
LINE
8
cut
10
138.495460
20
201.994000
11
173.108340
21
201.994000
0
LINE
8
cut
10
173.821050
20
201.994000
11
184.025010
21
201.994000
0
LINE
8
cut
10
184.025010
20
201.994000
11
184.025010
21
173.098586
0
LINE
8
cut
10
184.025010
20
171.628513
11
184.025010
21
141.994000
0
LINE
8
cut
10
184.025010
20
141.994000
11
174.015580
21
141.993470
 0 
ENDSEC
 0 
EOF