<?xml version="1.0" encoding="UTF-8" standalone="no"?>
<!-- Created with Inkscape (http://www.inkscape.org/) -->

<svg
   width="210mm"
   height="297mm"
   viewBox="0 0 210 297"
   version="1.1"
   id="svg1"
   xml:space="preserve"
   inkscape:version="1.3.2 (091e20e, 2023-11-25)"
   sodipodi:docname="strobe-t8-side-02.svg"
   inkscape:export-filename="../../../../../../Downloads/strobe-t8-side-02-print.pdf"
   inkscape:export-xdpi="96"
   inkscape:export-ydpi="96"
   xmlns:inkscape="http://www.inkscape.org/namespaces/inkscape"
   xmlns:sodipodi="http://sodipodi.sourceforge.net/DTD/sodipodi-0.dtd"
   xmlns:xlink="http://www.w3.org/1999/xlink"
   xmlns="http://www.w3.org/2000/svg"
   xmlns:svg="http://www.w3.org/2000/svg"><sodipodi:namedview
     id="namedview1"
     pagecolor="#ffffff"
     bordercolor="#000000"
     borderopacity="0.25"
     inkscape:showpageshadow="2"
     inkscape:pageopacity="0.0"
     inkscape:pagecheckerboard="0"
     inkscape:deskcolor="#d1d1d1"
     inkscape:document-units="mm"
     inkscape:zoom="1.2362699"
     inkscape:cx="380.17589"
     inkscape:cy="821.82704"
     inkscape:window-width="1712"
     inkscape:window-height="1027"
     inkscape:window-x="0"
     inkscape:window-y="1255"
     inkscape:window-maximized="0"
     inkscape:current-layer="layer1" /><defs
     id="defs1"><marker
       id="DistanceX"
       orient="auto"
       refX="0.0"
       refY="0.0"
       style="overflow:visible"><path
         d="M 3,-3 L -3,3 M 0,-5 L  0,5"
         style="stroke:#000000; stroke-width:0.5"
         id="path1" /></marker><pattern
       id="Hatch"
       patternUnits="userSpaceOnUse"
       width="8"
       height="8"
       x="0"
       y="0"><path
         d="M8 4 l-4,4"
         stroke="#000000"
         stroke-width="0.25"
         linecap="square"
         id="path2" /><path
         d="M6 2 l-4,4"
         stroke="#000000"
         stroke-width="0.25"
         linecap="square"
         id="path3" /><path
         d="M4 0 l-4,4"
         stroke="#000000"
         stroke-width="0.25"
         linecap="square"
         id="path4" /></pattern><symbol
       id="*MODEL_SPACE" /><symbol
       id="*PAPER_SPACE" /><marker
       id="DistanceX-8"
       orient="auto"
       refX="0.0"
       refY="0.0"
       style="overflow:visible"><path
         d="M 3,-3 L -3,3 M 0,-5 L  0,5"
         style="stroke:#000000; stroke-width:0.5"
         id="path1-6" /></marker><pattern
       id="Hatch-2"
       patternUnits="userSpaceOnUse"
       width="8"
       height="8"
       x="0"
       y="0"><path
         d="M8 4 l-4,4"
         stroke="#000000"
         stroke-width="0.25"
         linecap="square"
         id="path2-5" /><path
         d="M6 2 l-4,4"
         stroke="#000000"
         stroke-width="0.25"
         linecap="square"
         id="path3-1" /><path
         d="M4 0 l-4,4"
         stroke="#000000"
         stroke-width="0.25"
         linecap="square"
         id="path4-3" /></pattern><symbol
       id="*MODEL_SPACE-9" /><symbol
       id="*PAPER_SPACE-7" /><marker
       id="DistanceX-4"
       orient="auto"
       refX="0.0"
       refY="0.0"
       style="overflow:visible"><path
         d="M 3,-3 L -3,3 M 0,-5 L  0,5"
         style="stroke:#000000; stroke-width:0.5"
         id="path1-1" /></marker><pattern
       id="Hatch-6"
       patternUnits="userSpaceOnUse"
       width="8"
       height="8"
       x="0"
       y="0"><path
         d="M8 4 l-4,4"
         stroke="#000000"
         stroke-width="0.25"
         linecap="square"
         id="path2-1" /><path
         d="M6 2 l-4,4"
         stroke="#000000"
         stroke-width="0.25"
         linecap="square"
         id="path3-2" /><path
         d="M4 0 l-4,4"
         stroke="#000000"
         stroke-width="0.25"
         linecap="square"
         id="path4-0" /></pattern><symbol
       id="*MODEL_SPACE-4" /><symbol
       id="*PAPER_SPACE-4" /><marker
       id="DistanceX-9"
       orient="auto"
       refX="0.0"
       refY="0.0"
       style="overflow:visible"><path
         d="M 3,-3 L -3,3 M 0,-5 L  0,5"
         style="stroke:#000000; stroke-width:0.5"
         id="path1-9" /></marker><pattern
       id="Hatch-3"
       patternUnits="userSpaceOnUse"
       width="8"
       height="8"
       x="0"
       y="0"><path
         d="M8 4 l-4,4"
         stroke="#000000"
         stroke-width="0.25"
         linecap="square"
         id="path2-3" /><path
         d="M6 2 l-4,4"
         stroke="#000000"
         stroke-width="0.25"
         linecap="square"
         id="path3-7" /><path
         d="M4 0 l-4,4"
         stroke="#000000"
         stroke-width="0.25"
         linecap="square"
         id="path4-7" /></pattern><symbol
       id="*MODEL_SPACE-3" /><symbol
       id="*PAPER_SPACE-2" /><marker
       id="DistanceX-43"
       orient="auto"
       refX="0.0"
       refY="0.0"
       style="overflow:visible"><path
         d="M 3,-3 L -3,3 M 0,-5 L  0,5"
         style="stroke:#000000; stroke-width:0.5"
         id="path1-17" /></marker><pattern
       id="Hatch-9"
       patternUnits="userSpaceOnUse"
       width="8"
       height="8"
       x="0"
       y="0"><path
         d="M8 4 l-4,4"
         stroke="#000000"
         stroke-width="0.25"
         linecap="square"
         id="path2-4" /><path
         d="M6 2 l-4,4"
         stroke="#000000"
         stroke-width="0.25"
         linecap="square"
         id="path3-70" /><path
         d="M4 0 l-4,4"
         stroke="#000000"
         stroke-width="0.25"
         linecap="square"
         id="path4-1" /></pattern><symbol
       id="*MODEL_SPACE-1" /><symbol
       id="*PAPER_SPACE-5" /><marker
       id="DistanceX-0"
       orient="auto"
       refX="0.0"
       refY="0.0"
       style="overflow:visible"><path
         d="M 3,-3 L -3,3 M 0,-5 L  0,5"
         style="stroke:#000000; stroke-width:0.5"
         id="path1-64" /></marker><pattern
       id="Hatch-7"
       patternUnits="userSpaceOnUse"
       width="8"
       height="8"
       x="0"
       y="0"><path
         d="M8 4 l-4,4"
         stroke="#000000"
         stroke-width="0.25"
         linecap="square"
         id="path2-8" /><path
         d="M6 2 l-4,4"
         stroke="#000000"
         stroke-width="0.25"
         linecap="square"
         id="path3-4" /><path
         d="M4 0 l-4,4"
         stroke="#000000"
         stroke-width="0.25"
         linecap="square"
         id="path4-00" /></pattern><symbol
       id="*MODEL_SPACE-6" /><symbol
       id="*PAPER_SPACE-24" /><marker
       id="DistanceX-1"
       orient="auto"
       refX="0.0"
       refY="0.0"
       style="overflow:visible"><path
         d="M 3,-3 L -3,3 M 0,-5 L  0,5"
         style="stroke:#000000; stroke-width:0.5"
         id="path1-8" /></marker><pattern
       id="Hatch-78"
       patternUnits="userSpaceOnUse"
       width="8"
       height="8"
       x="0"
       y="0"><path
         d="M8 4 l-4,4"
         stroke="#000000"
         stroke-width="0.25"
         linecap="square"
         id="path2-7" /><path
         d="M6 2 l-4,4"
         stroke="#000000"
         stroke-width="0.25"
         linecap="square"
         id="path3-74" /><path
         d="M4 0 l-4,4"
         stroke="#000000"
         stroke-width="0.25"
         linecap="square"
         id="path4-4" /></pattern><symbol
       id="*MODEL_SPACE-91" /><symbol
       id="*PAPER_SPACE-55" /></defs><g
     inkscape:groupmode="layer"
     id="layer2"
     inkscape:label="construction"
     style="display:none"><rect
       style="fill:none;stroke:#00ff00;stroke-width:0.00884674;stroke-linecap:round;stroke-linejoin:round"
       id="rect28"
       width="36.001152"
       height="60.001152"
       x="-66.016876"
       y="-80.006149"
       transform="scale(-1)" /><use
       x="0"
       y="0"
       xlink:href="#rect28"
       id="use28"
       transform="translate(36.009999)" /><use
       x="0"
       y="0"
       xlink:href="#rect28"
       id="use29"
       transform="translate(71.999289)" /><use
       x="0"
       y="0"
       xlink:href="#rect28"
       id="use30"
       transform="translate(107.99871)" /><rect
       style="fill:none;stroke:#00ff00;stroke-width:0.01;stroke-linecap:round;stroke-linejoin:round"
       id="rect2"
       width="10"
       height="60"
       x="-30.005009"
       y="-80.005569"
       transform="scale(-1)" /><rect
       style="fill:none;stroke:#00ff00;stroke-width:0.01;stroke-linecap:round;stroke-linejoin:round"
       id="rect33"
       width="36"
       height="10"
       x="138.01616"
       y="80.006149" /><rect
       style="fill:none;stroke:#00ff00;stroke-width:0.01;stroke-linecap:round;stroke-linejoin:round"
       id="rect34"
       width="10"
       height="60"
       x="-184.02501"
       y="-80.005569"
       transform="scale(-1)" /><rect
       style="fill:none;stroke:#00ff00;stroke-width:0.01;stroke-linecap:round;stroke-linejoin:round"
       id="rect35"
       width="20"
       height="9.9999962"
       x="146.01616"
       y="80.006149" /><rect
       style="fill:none;stroke:#00ff00;stroke-width:0.01;stroke-linecap:round;stroke-linejoin:round"
       id="rect37"
       width="10.01"
       height="40"
       x="174.01501"
       y="30.005569" /><use
       x="0"
       y="0"
       xlink:href="#rect37"
       id="use38"
       transform="translate(-154.01002)" /><rect
       style="fill:none;stroke:#00ff00;stroke-width:0.01;stroke-linecap:round;stroke-linejoin:round"
       id="rect39"
       width="10"
       height="30"
       x="20.005009"
       y="35.005569" /></g><g
     inkscape:groupmode="layer"
     id="layer3"
     inkscape:label="laser"
     style="display:none;stroke:#000000"><use
       x="0"
       y="0"
       xlink:href="#g37"
       id="use39"
       transform="translate(-3.5145072e-7,-75)" /><g
       id="g37"
       inkscape:label="wallPart"
       transform="translate(10.000005,85.000567)"><g
         id="g35"
         inkscape:label="cut"><path
           d="M 36.018364,35.039623 V 14.0021 h 3.99586 v 2.40649 m 0,0.488606 V 39.99795 h -3.99586 v -4.504192"
           style="fill:none;stroke:#000000;stroke-width:0.0141355;stroke-dasharray:none"
           id="path8-0"
           sodipodi:nodetypes="cccccccc" /><use
           x="0"
           y="0"
           xlink:href="#path8-0"
           id="use31"
           transform="translate(36.010001)"
           style="stroke:#000000" /><use
           x="0"
           y="0"
           xlink:href="#path8-0"
           id="use32"
           transform="translate(71.999291,0.00707)"
           style="stroke:#000000" /><use
           x="0"
           y="0"
           xlink:href="#path8-0"
           id="use33"
           transform="translate(107.99871,0.00707)"
           style="stroke:#000000" /><path
           style="fill:none;stroke:#000000;stroke-width:0.01;stroke-linecap:round;stroke-linejoin:round"
           d="m 164.01428,69.99929 -7.99812,10.00629 h -9.38157 m -0.85377,0 h -9.76466 l -8,-10"
           id="path34"
           sodipodi:nodetypes="cccccc" /><use
           x="0"
           y="0"
           xlink:href="#path34"
           id="use35"
           transform="translate(-35.989288)"
           style="stroke:#000000" /><use
           x="0"
           y="0"
           xlink:href="#path34"
           id="use36"
           transform="translate(-71.999287)"
           style="stroke:#000000" /><use
           x="0"
           y="0"
           xlink:href="#path34"
           id="use37"
           transform="translate(-108.00044)"
           style="stroke:#000000" /><path
           id="rect38"
           style="fill:none;stroke-width:0.01;stroke-linecap:round;stroke-linejoin:round"
           d="m 165.01501,25.842532 v 34.162471 h -1 v -7.591981 m 0,-0.909949 v -31.49807 h 1 v 4.988243"
           sodipodi:nodetypes="cccccccc" /><path
           style="fill:none;stroke:#000000;stroke-width:0.01;stroke-linecap:round;stroke-linejoin:round"
           d="m 20.005001,70.005 v -10 l -9.999999,-5 V 40.48357 m 0,-1.243909 V 25.005 l 9.999999,-5 v -10 h 4.181505 m 0.939292,0 h 29.633481 m 0.957491,0 h 35.705229 m 0.806044,0 h 35.763777 m 0.50364,0 h 34.61288 m 0.71271,0 h 10.20396 v 28.895414 m 0,1.470073 V 70.005 l -10.00943,5.3e-4"
           id="path39"
           sodipodi:nodetypes="ccccccccccccccccccccccc" /></g><g
         id="g36"
         inkscape:label="bend"
         style="display:inline"><path
           style="fill:#0000ff;stroke:#0000ff;stroke-width:0.01;stroke-linecap:round;stroke-linejoin:round;stroke-dasharray:0.24, 0.24;stroke-dashoffset:0"
           d="m 20.01572,70.005579 143.99986,-5e-5"
           id="path28" /><path
           style="fill:#0000ff;stroke:#0000ff;stroke-width:0.01;stroke-linecap:round;stroke-linejoin:round;stroke-dasharray:0.24, 0.24;stroke-dashoffset:0"
           d="m 56.016871,10.004433 -0.0081,60.001152"
           id="path29" /><path
           style="fill:#0000ff;stroke:#0000ff;stroke-width:0.01;stroke-linecap:round;stroke-linejoin:round;stroke-dasharray:0.24, 0.24;stroke-dashoffset:0"
           d="m 92.015007,10.004433 0.01185,60.001152"
           id="path30" /><path
           style="fill:#0000ff;stroke:#0000ff;stroke-width:0.01;stroke-linecap:round;stroke-linejoin:round;stroke-dasharray:0.24, 0.24;stroke-dashoffset:0"
           d="m 127.99182,10.005 0.0243,60.000585"
           id="path31" /><path
           style="fill:#0000ff;stroke:#0000ff;stroke-width:0.01;stroke-linecap:round;stroke-linejoin:round;stroke-dasharray:0.24, 0.24;stroke-dashoffset:0"
           d="m 164.02501,10.005005 -0.01,9.999998"
           id="path32" /><path
           style="fill:#0000ff;stroke:#0000ff;stroke-width:0.01;stroke-linecap:round;stroke-linejoin:round;stroke-dasharray:0.24, 0.24;stroke-dashoffset:0"
           d="m 164.00925,70.005585 0.0158,-10.000583"
           id="path33" /><path
           style="fill:#0000ff;stroke:#0000ff;stroke-width:0.01;stroke-linecap:round;stroke-linejoin:round;stroke-dasharray:0.24, 0.24;stroke-dashoffset:0"
           d="m 20.004995,20.005003 6e-6,39.999999"
           id="path35" /></g></g><use
       x="0"
       y="0"
       xlink:href="#use39"
       id="use40"
       transform="translate(3.5145072e-7,150)" /></g><g
     inkscape:label="print"
     inkscape:groupmode="layer"
     id="layer1"
     style="display:inline"><g
       id="g3"
       transform="matrix(0.81203781,0,0,0.81203781,-24.538545,-137.25489)"
       style="display:inline;fill:none;stroke:#000000;stroke-width:0.0123147;stroke-dasharray:none"
       inkscape:label="TukumanaLab Icon"><path
         class="st7"
         d="m 167.14336,248.09439 0.0685,-1.19852 h 5.84895 l 0.50694,-8.45217 c 0.0147,-0.24599 -0.18075,-0.45368 -0.42733,-0.45368 h -7.96948 l 0.0823,-1.19852 h 10.74238 c 0.25077,0 0.45008,0.21128 0.43511,0.46176 l -0.644,10.84113 z"
         id="path495"
         style="fill:none;stroke:#000000;stroke-width:0.0123147;stroke-miterlimit:10;stroke-dasharray:none;stroke-opacity:1" /><path
         class="st8"
         d="m 188.48159,248.11837 h -4.21263 l -6.65694,-6.57106 8.16399,-5.57902 h 3.57342 c 0.005,0 0.007,0.006 0.003,0.009 l -7.91829,5.5081 7.05705,6.60966 c 0.009,0.008 0.003,0.0233 -0.009,0.0233 z"
         id="path497"
         style="fill:none;stroke:#000000;stroke-width:0.0123147;stroke-miterlimit:10;stroke-dasharray:none;stroke-opacity:1" /><path
         class="st9"
         d="m 165.32763,251.07619 0.0685,-1.21917 h 5.24625 l 0.0548,-0.95043 h 2.79445 l -0.0548,0.95043 h 3.08203 l -0.0685,1.21917 h -3.08203 l -0.10953,1.85958 h 3.06827 l -0.0685,1.21916 h -3.06827 l -0.13706,2.2935 h 3.23256 l -0.0685,1.19852 h -3.23256 l -0.19182,3.40942 h -7.68429 l 0.27382,-4.60794 h 4.87637 l 0.13706,-2.2935 h -5.26001 l 0.0685,-1.21916 h 5.26001 l 0.10953,-1.85958 z m 4.73961,8.76131 0.12329,-2.19025 h -2.08222 l -0.13706,2.19025 z"
         id="path499"
         style="fill:none;stroke:#000000;stroke-width:0.0123147;stroke-miterlimit:10;stroke-dasharray:none;stroke-opacity:1" /><path
         class="st10"
         d="m 177.7419,251.65494 0.0548,-1.21916 h 1.91764 l 0.45217,-1.5292 h 2.99974 l -0.45218,1.5292 h 7.01336 l -0.0685,1.21916 h -7.30094 l -2.10945,7.12887 h -2.99974 l 2.10945,-7.12887 z m 4.9859,2.60353 0.0685,-1.21917 h 6.54771 l -0.0685,1.21917 h -1.00011 l -0.12329,2.02506 h 1.30116 l -0.0685,1.21917 h -1.30116 l -0.21906,3.55396 h -7.06812 l 0.26036,-4.77313 h 4.31496 l 0.10953,-2.02506 z m 2.57539,3.24393 h -1.53428 l -0.12329,2.33509 h 1.52051 z"
         id="path501"
         style="fill:none;stroke:#000000;stroke-width:0.0123147;stroke-miterlimit:10;stroke-dasharray:none;stroke-opacity:1" /><g
         id="g507"
         transform="matrix(0.02823167,0,0,0.02823167,161.77377,229.20935)"
         style="fill:none;stroke:#000000;stroke-width:0.436202;stroke-dasharray:none;stroke-opacity:1">
	<path
   class="st11"
   d="m 126.38,152.3 1.07,-14.75 h 73.12 l 0.43,-5.9 h -69.49 l 1.07,-14.75 h 69.49 l 0.43,-5.9 h -69.28 l 1.07,-14.75 h 69.28 l 0.21,-3.93 h 45.33 l -0.21,3.93 h 70.13 L 317.96,111 h -70.13 l -0.43,5.9 h 69.92 l -1.07,14.75 h -69.92 l -0.43,5.9 h 73.12 l -1.07,14.75 z m 5.34,87.49 5.77,-80.61 h 41.05 85.74 41.05 l -5.77,80.61 h -41.05 l 1.5,-20.64 h -85.74 l -1.5,20.64 z m 43.62,-35.39 h 85.74 l 0.43,-7.86 h -85.74 z m 1.5,-22.61 h 85.74 l 0.64,-7.86 h -85.74 z"
   id="path503"
   style="fill:none;stroke:#000000;stroke-width:0.436202;stroke-dasharray:none;stroke-opacity:1" />
	<path
   class="st11"
   d="m 368.84,147.14 0.64,-7.62 h -23.31 l 2.57,-33.42 h 20.53 l -1.71,-13.76 h 35.92 l 1.71,13.76 h 19.46 l -1.07,-13.76 h 39.34 l 1.07,13.76 h 19.24 l 4.06,-13.76 h 35.92 l -4.06,13.76 h 20.53 0.64 l -2.57,33.42 H 513.8 l -45.97,34.41 h 66.71 l -1.28,14.75 h -73.12 l -4.06,51.12 h -2.57 -40.2 -27.58 l 1.07,-14.75 h 27.58 l 2.99,-36.37 h -74.41 l 1.07,-14.75 h 74.19 l 35.71,-26.79 z m 104.77,-14.75 h 28.01 l 0.86,-11.55 H 384.45 l -0.86,11.55 z"
   id="path505"
   style="fill:none;stroke:#000000;stroke-width:0.436202;stroke-dasharray:none;stroke-opacity:1" />
</g><g
         id="g513"
         transform="matrix(0.02823167,0,0,0.02823167,143.84504,233.82633)"
         style="fill:none;stroke:#000000;stroke-width:0.436202;stroke-dasharray:none;stroke-opacity:1">
	<path
   class="st11"
   d="M 1215.38,1150.94 1234.64,1049 h -157.37 l 1.25,-15.76 h 215.17 l -22.27,117.71 h -56.04 z m -134.6,-140.83 1.25,-15.76 h 215.17 l -1.25,15.76 z"
   id="path509"
   style="fill:none;stroke:#000000;stroke-width:0.436202;stroke-dasharray:none;stroke-opacity:1" />
	<path
   class="st11"
   d="m 1323.97,1143.58 25.02,-99.84 h 48.04 l -25.27,99.84 z m 14.26,-119.81 1.25,-15.76 h 76.31 l 1.25,-14.71 h 56.04 l -1.25,14.71 h 53.79 l -1.25,15.76 h -53.79 l -10.76,127.17 h -55.79 l 10.51,-127.17 z m 154.87,119.81 -7.01,-99.84 h 48.04 l 6.76,99.84 z m 43.04,-124.01 h -11.01 l 2.25,-26.27 h 11.01 z m 19.01,0 h -11.01 l 2.25,-26.27 h 11.01 z"
   id="path511"
   style="fill:none;stroke:#000000;stroke-width:0.436202;stroke-dasharray:none;stroke-opacity:1" />
</g></g><use
       x="0"
       y="0"
       xlink:href="#g3"
       id="use42"
       transform="translate(3.5145072e-7,75)" /><use
       x="0"
       y="0"
       xlink:href="#g3"
       id="use43"
       transform="translate(3.5145072e-7,150)" /><text
       xml:space="preserve"
       style="font-size:4.23333px;font-family:'Hiragino Kaku Gothic Pro';-inkscape-font-specification:'Hiragino Kaku Gothic Pro';text-align:center;text-anchor:middle;fill:#0000ff;stroke:#0000ff;stroke-width:0.01;stroke-linecap:round;stroke-linejoin:round"
       x="67.524101"
       y="268.83035"
       id="text43"><tspan
         sodipodi:role="line"
         id="tspan43"
         style="stroke-width:0.01" /></text><text
       xml:space="preserve"
       style="font-size:4.23333px;font-family:'Hiragino Kaku Gothic Pro';-inkscape-font-specification:'Hiragino Kaku Gothic Pro';text-align:center;text-anchor:middle;fill:#000000;stroke:#000000;stroke-width:0.01;stroke-linecap:round;stroke-linejoin:round"
       x="136.20921"
       y="279.9339"
       id="text44"><tspan
         sodipodi:role="line"
         id="tspan44"
         style="fill:#000000;stroke:#000000;stroke-width:0.01"
         x="136.20921"
         y="279.9339">https://sites.google.com/view/tukumanalab</tspan></text><text
       xml:space="preserve"
       style="font-size:6.35px;font-family:'Hiragino Kaku Gothic Pro';-inkscape-font-specification:'Hiragino Kaku Gothic Pro';text-align:center;text-anchor:middle;fill:#000000;stroke:#000000;stroke-width:0.01;stroke-linecap:round;stroke-linejoin:round"
       x="156.06776"
       y="274.46555"
       id="text45"><tspan
         sodipodi:role="line"
         style="font-size:6.35px;fill:#000000;stroke:#000000;stroke-width:0.01"
         x="157.12505"
         y="274.46555"
         id="tspan46">青学つくまなラボ </tspan></text><text
       xml:space="preserve"
       style="font-size:8.46667px;font-family:'Hiragino Kaku Gothic Pro';-inkscape-font-specification:'Hiragino Kaku Gothic Pro';text-align:center;text-anchor:middle;fill:#000000;stroke:#000000;stroke-width:0.01;stroke-linecap:round;stroke-linejoin:round"
       x="140.01494"
       y="257.56201"
       id="text47"><tspan
         sodipodi:role="line"
         id="tspan47"
         style="stroke-width:0.01"
         x="140.01494"
         y="257.56201">つくまなゾートロープ</tspan></text><text
       xml:space="preserve"
       style="font-size:4.93889px;font-family:'Hiragino Kaku Gothic Pro';-inkscape-font-specification:'Hiragino Kaku Gothic Pro';text-align:center;text-anchor:middle;fill:#000000;stroke:#000000;stroke-width:0.01;stroke-linecap:round;stroke-linejoin:round"
       x="167.25858"
       y="262.89465"
       id="text48"><tspan
         sodipodi:role="line"
         style="font-size:4.93889px;fill:#000000;stroke:#000000;stroke-width:0.01"
         x="167.25858"
         y="262.89465"
         id="tspan48">MFT2025版</tspan></text><text
       xml:space="preserve"
       style="font-size:4.9389px;line-height:0.9;font-family:'Hiragino Kaku Gothic Pro';-inkscape-font-specification:'Hiragino Kaku Gothic Pro';text-align:center;text-anchor:middle;fill:none;stroke:#0000ff;stroke-width:0.01;stroke-linecap:round;stroke-linejoin:round"
       x="19.917511"
       y="275.77817"
       id="text1"><tspan
         sodipodi:role="line"
         style="font-size:2.82222px;line-height:0.9;text-align:start;text-anchor:start;fill:#000000;stroke:#000000;stroke-width:0.01"
         x="19.917511"
         y="275.77817"
         id="tspan3">Zoetrope Papercraft © 2025</tspan><tspan
         sodipodi:role="line"
         style="line-height:0.9;text-align:start;text-anchor:start;stroke-width:0.01"
         x="19.917511"
         y="280.22318"
         id="tspan6"><tspan
   style="font-size:2.82222px;line-height:0.9;fill:#000000;stroke:#000000"
   id="tspan7">by Koji Yokokawa is licensed under CC BY 4.0</tspan> </tspan></text></g></svg>
