<?xml version="1.0" encoding="UTF-8" standalone="no"?>
<!-- Created with Inkscape (http://www.inkscape.org/) -->

<svg
   width="210mm"
   height="297mm"
   viewBox="0 0 210 297"
   version="1.1"
   id="svg1"
   xml:space="preserve"
   inkscape:version="1.3.2 (091e20e, 2023-11-25)"
   sodipodi:docname="strobe-t8-side-02-fabool.svg"
   inkscape:export-filename="../../../../../../Downloads/strobe-t8-side-02-fabool.svg"
   inkscape:export-xdpi="96"
   inkscape:export-ydpi="96"
   xmlns:inkscape="http://www.inkscape.org/namespaces/inkscape"
   xmlns:sodipodi="http://sodipodi.sourceforge.net/DTD/sodipodi-0.dtd"
   xmlns:xlink="http://www.w3.org/1999/xlink"
   xmlns="http://www.w3.org/2000/svg"
   xmlns:svg="http://www.w3.org/2000/svg"><sodipodi:namedview
     id="namedview1"
     pagecolor="#ffffff"
     bordercolor="#000000"
     borderopacity="0.25"
     inkscape:showpageshadow="2"
     inkscape:pageopacity="0.0"
     inkscape:pagecheckerboard="0"
     inkscape:deskcolor="#d1d1d1"
     inkscape:document-units="mm"
     inkscape:zoom="0.55605157"
     inkscape:cx="353.38449"
     inkscape:cy="575.48619"
     inkscape:window-width="1712"
     inkscape:window-height="1027"
     inkscape:window-x="0"
     inkscape:window-y="1255"
     inkscape:window-maximized="0"
     inkscape:current-layer="layer3" /><defs
     id="defs1"><marker
       id="DistanceX"
       orient="auto"
       refX="0.0"
       refY="0.0"
       style="overflow:visible"><path
         d="M 3,-3 L -3,3 M 0,-5 L  0,5"
         style="stroke:#000000; stroke-width:0.5"
         id="path1" /></marker><pattern
       id="Hatch"
       patternUnits="userSpaceOnUse"
       width="8"
       height="8"
       x="0"
       y="0"><path
         d="M8 4 l-4,4"
         stroke="#000000"
         stroke-width="0.25"
         linecap="square"
         id="path2" /><path
         d="M6 2 l-4,4"
         stroke="#000000"
         stroke-width="0.25"
         linecap="square"
         id="path3" /><path
         d="M4 0 l-4,4"
         stroke="#000000"
         stroke-width="0.25"
         linecap="square"
         id="path4" /></pattern><symbol
       id="*MODEL_SPACE" /><symbol
       id="*PAPER_SPACE" /><marker
       id="DistanceX-8"
       orient="auto"
       refX="0.0"
       refY="0.0"
       style="overflow:visible"><path
         d="M 3,-3 L -3,3 M 0,-5 L  0,5"
         style="stroke:#000000; stroke-width:0.5"
         id="path1-6" /></marker><pattern
       id="Hatch-2"
       patternUnits="userSpaceOnUse"
       width="8"
       height="8"
       x="0"
       y="0"><path
         d="M8 4 l-4,4"
         stroke="#000000"
         stroke-width="0.25"
         linecap="square"
         id="path2-5" /><path
         d="M6 2 l-4,4"
         stroke="#000000"
         stroke-width="0.25"
         linecap="square"
         id="path3-1" /><path
         d="M4 0 l-4,4"
         stroke="#000000"
         stroke-width="0.25"
         linecap="square"
         id="path4-3" /></pattern><symbol
       id="*MODEL_SPACE-9" /><symbol
       id="*PAPER_SPACE-7" /><marker
       id="DistanceX-4"
       orient="auto"
       refX="0.0"
       refY="0.0"
       style="overflow:visible"><path
         d="M 3,-3 L -3,3 M 0,-5 L  0,5"
         style="stroke:#000000; stroke-width:0.5"
         id="path1-1" /></marker><pattern
       id="Hatch-6"
       patternUnits="userSpaceOnUse"
       width="8"
       height="8"
       x="0"
       y="0"><path
         d="M8 4 l-4,4"
         stroke="#000000"
         stroke-width="0.25"
         linecap="square"
         id="path2-1" /><path
         d="M6 2 l-4,4"
         stroke="#000000"
         stroke-width="0.25"
         linecap="square"
         id="path3-2" /><path
         d="M4 0 l-4,4"
         stroke="#000000"
         stroke-width="0.25"
         linecap="square"
         id="path4-0" /></pattern><symbol
       id="*MODEL_SPACE-4" /><symbol
       id="*PAPER_SPACE-4" /><marker
       id="DistanceX-9"
       orient="auto"
       refX="0.0"
       refY="0.0"
       style="overflow:visible"><path
         d="M 3,-3 L -3,3 M 0,-5 L  0,5"
         style="stroke:#000000; stroke-width:0.5"
         id="path1-9" /></marker><pattern
       id="Hatch-3"
       patternUnits="userSpaceOnUse"
       width="8"
       height="8"
       x="0"
       y="0"><path
         d="M8 4 l-4,4"
         stroke="#000000"
         stroke-width="0.25"
         linecap="square"
         id="path2-3" /><path
         d="M6 2 l-4,4"
         stroke="#000000"
         stroke-width="0.25"
         linecap="square"
         id="path3-7" /><path
         d="M4 0 l-4,4"
         stroke="#000000"
         stroke-width="0.25"
         linecap="square"
         id="path4-7" /></pattern><symbol
       id="*MODEL_SPACE-3" /><symbol
       id="*PAPER_SPACE-2" /><marker
       id="DistanceX-43"
       orient="auto"
       refX="0.0"
       refY="0.0"
       style="overflow:visible"><path
         d="M 3,-3 L -3,3 M 0,-5 L  0,5"
         style="stroke:#000000; stroke-width:0.5"
         id="path1-17" /></marker><pattern
       id="Hatch-9"
       patternUnits="userSpaceOnUse"
       width="8"
       height="8"
       x="0"
       y="0"><path
         d="M8 4 l-4,4"
         stroke="#000000"
         stroke-width="0.25"
         linecap="square"
         id="path2-4" /><path
         d="M6 2 l-4,4"
         stroke="#000000"
         stroke-width="0.25"
         linecap="square"
         id="path3-70" /><path
         d="M4 0 l-4,4"
         stroke="#000000"
         stroke-width="0.25"
         linecap="square"
         id="path4-1" /></pattern><symbol
       id="*MODEL_SPACE-1" /><symbol
       id="*PAPER_SPACE-5" /><marker
       id="DistanceX-0"
       orient="auto"
       refX="0.0"
       refY="0.0"
       style="overflow:visible"><path
         d="M 3,-3 L -3,3 M 0,-5 L  0,5"
         style="stroke:#000000; stroke-width:0.5"
         id="path1-64" /></marker><pattern
       id="Hatch-7"
       patternUnits="userSpaceOnUse"
       width="8"
       height="8"
       x="0"
       y="0"><path
         d="M8 4 l-4,4"
         stroke="#000000"
         stroke-width="0.25"
         linecap="square"
         id="path2-8" /><path
         d="M6 2 l-4,4"
         stroke="#000000"
         stroke-width="0.25"
         linecap="square"
         id="path3-4" /><path
         d="M4 0 l-4,4"
         stroke="#000000"
         stroke-width="0.25"
         linecap="square"
         id="path4-00" /></pattern><symbol
       id="*MODEL_SPACE-6" /><symbol
       id="*PAPER_SPACE-24" /><marker
       id="DistanceX-1"
       orient="auto"
       refX="0.0"
       refY="0.0"
       style="overflow:visible"><path
         d="M 3,-3 L -3,3 M 0,-5 L  0,5"
         style="stroke:#000000; stroke-width:0.5"
         id="path1-8" /></marker><pattern
       id="Hatch-78"
       patternUnits="userSpaceOnUse"
       width="8"
       height="8"
       x="0"
       y="0"><path
         d="M8 4 l-4,4"
         stroke="#000000"
         stroke-width="0.25"
         linecap="square"
         id="path2-7" /><path
         d="M6 2 l-4,4"
         stroke="#000000"
         stroke-width="0.25"
         linecap="square"
         id="path3-74" /><path
         d="M4 0 l-4,4"
         stroke="#000000"
         stroke-width="0.25"
         linecap="square"
         id="path4-4" /></pattern><symbol
       id="*MODEL_SPACE-91" /><symbol
       id="*PAPER_SPACE-55" /></defs><g
     inkscape:groupmode="layer"
     id="layer3"
     inkscape:label="laser"
     style="stroke:#000000"><g
       id="g37"
       inkscape:label="wallPart"
       transform="translate(10.000005,10.001)"><g
         id="g35"
         inkscape:label="cut"><path
           d="M 36.018364,35.039623 V 14.0021 h 3.99586 v 2.40649 m 0,0.488606 V 39.99795 h -3.99586 v -4.504192"
           style="fill:none;stroke:#000000;stroke-width:0.0141355;stroke-dasharray:none"
           id="path8-0"
           sodipodi:nodetypes="cccccccc" /><use
           x="0"
           y="0"
           xlink:href="#path8-0"
           id="use31"
           transform="translate(36.010001)"
           style="stroke:#000000" /><use
           x="0"
           y="0"
           xlink:href="#path8-0"
           id="use32"
           transform="translate(71.999291,0.00707)"
           style="stroke:#000000" /><use
           x="0"
           y="0"
           xlink:href="#path8-0"
           id="use33"
           transform="translate(107.99871,0.00707)"
           style="stroke:#000000" /><path
           style="fill:none;stroke:#000000;stroke-width:0.01;stroke-linecap:round;stroke-linejoin:round"
           d="m 164.01428,69.99929 -7.99812,10.00629 h -9.38157 m -0.85377,0 h -9.76466 l -8,-10"
           id="path34"
           sodipodi:nodetypes="cccccc" /><use
           x="0"
           y="0"
           xlink:href="#path34"
           id="use35"
           transform="translate(-35.989288)"
           style="stroke:#000000" /><use
           x="0"
           y="0"
           xlink:href="#path34"
           id="use36"
           transform="translate(-71.999287)"
           style="stroke:#000000" /><use
           x="0"
           y="0"
           xlink:href="#path34"
           id="use37"
           transform="translate(-108.00044)"
           style="stroke:#000000" /><path
           id="rect38"
           style="fill:none;stroke-width:0.01;stroke-linecap:round;stroke-linejoin:round"
           d="m 165.01501,25.842532 v 34.162471 h -1 v -7.591981 m 0,-0.909949 v -31.49807 h 1 v 4.988243"
           sodipodi:nodetypes="cccccccc" /><path
           style="fill:none;stroke:#000000;stroke-width:0.01;stroke-linecap:round;stroke-linejoin:round"
           d="m 20.005001,70.005 v -10 l -9.999999,-5 V 40.48357 m 0,-1.243909 V 25.005 l 9.999999,-5 v -10 h 4.181505 m 0.939292,0 h 29.633481 m 0.957491,0 h 35.705229 m 0.806044,0 h 35.763777 m 0.50364,0 h 34.61288 m 0.71271,0 h 10.20396 v 28.895414 m 0,1.470073 V 70.005 l -10.00943,5.3e-4"
           id="path39"
           sodipodi:nodetypes="ccccccccccccccccccccccc" /></g><g
         id="g41"
         inkscape:label="cut"><path
           d="M 36.018364,35.039623 V 14.0021 h 3.99586 v 2.40649 m 0,0.488606 V 39.99795 h -3.99586 v -4.504192"
           style="fill:none;stroke:#000000;stroke-width:0.0141355;stroke-dasharray:none"
           id="path28"
           sodipodi:nodetypes="cccccccc" /><use
           x="0"
           y="0"
           xlink:href="#path8-0"
           id="use28"
           transform="translate(36.010001)"
           style="stroke:#000000" /><use
           x="0"
           y="0"
           xlink:href="#path8-0"
           id="use29"
           transform="translate(71.999291,0.00707)"
           style="stroke:#000000" /><use
           x="0"
           y="0"
           xlink:href="#path8-0"
           id="use30"
           transform="translate(107.99871,0.00707)"
           style="stroke:#000000" /><path
           style="fill:none;stroke:#000000;stroke-width:0.01;stroke-linecap:round;stroke-linejoin:round"
           d="m 164.01428,69.99929 -7.99812,10.00629 h -9.38157 m -0.85377,0 h -9.76466 l -8,-10"
           id="path30"
           sodipodi:nodetypes="cccccc" /><use
           x="0"
           y="0"
           xlink:href="#path34"
           id="use34"
           transform="translate(-35.989288)"
           style="stroke:#000000" /><use
           x="0"
           y="0"
           xlink:href="#path34"
           id="use38"
           transform="translate(-71.999287)"
           style="stroke:#000000" /><use
           x="0"
           y="0"
           xlink:href="#path34"
           id="use39"
           transform="translate(-108.00044)"
           style="stroke:#000000" /><path
           id="path40"
           style="fill:none;stroke-width:0.01;stroke-linecap:round;stroke-linejoin:round"
           d="m 165.01501,25.842532 v 34.162471 h -1 v -7.591981 m 0,-0.909949 v -31.49807 h 1 v 4.988243"
           sodipodi:nodetypes="cccccccc" /><path
           style="fill:none;stroke:#000000;stroke-width:0.01;stroke-linecap:round;stroke-linejoin:round"
           d="m 20.005001,70.005 v -10 l -9.999999,-5 V 40.48357 m 0,-1.243909 V 25.005 l 9.999999,-5 v -10 h 4.181505 m 0.939292,0 h 29.633481 m 0.957491,0 h 35.705229 m 0.806044,0 h 35.763777 m 0.50364,0 h 34.61288 m 0.71271,0 h 10.20396 v 28.895414 m 0,1.470073 V 70.005 l -10.00943,5.3e-4"
           id="path41"
           sodipodi:nodetypes="ccccccccccccccccccccccc" /></g><g
         id="g48"
         inkscape:label="cut"><path
           d="M 36.018364,35.039623 V 14.0021 h 3.99586 v 2.40649 m 0,0.488606 V 39.99795 h -3.99586 v -4.504192"
           style="fill:none;stroke:#000000;stroke-width:0.0141355;stroke-dasharray:none"
           id="path42"
           sodipodi:nodetypes="cccccccc" /><use
           x="0"
           y="0"
           xlink:href="#path8-0"
           id="use42"
           transform="translate(36.010001)"
           style="stroke:#000000" /><use
           x="0"
           y="0"
           xlink:href="#path8-0"
           id="use43"
           transform="translate(71.999291,0.00707)"
           style="stroke:#000000" /><use
           x="0"
           y="0"
           xlink:href="#path8-0"
           id="use44"
           transform="translate(107.99871,0.00707)"
           style="stroke:#000000" /><path
           style="fill:none;stroke:#000000;stroke-width:0.01;stroke-linecap:round;stroke-linejoin:round"
           d="m 164.01428,69.99929 -7.99812,10.00629 h -9.38157 m -0.85377,0 h -9.76466 l -8,-10"
           id="path44"
           sodipodi:nodetypes="cccccc" /><use
           x="0"
           y="0"
           xlink:href="#path34"
           id="use45"
           transform="translate(-35.989288)"
           style="stroke:#000000" /><use
           x="0"
           y="0"
           xlink:href="#path34"
           id="use46"
           transform="translate(-71.999287)"
           style="stroke:#000000" /><use
           x="0"
           y="0"
           xlink:href="#path34"
           id="use47"
           transform="translate(-108.00044)"
           style="stroke:#000000" /><path
           id="path47"
           style="fill:none;stroke-width:0.01;stroke-linecap:round;stroke-linejoin:round"
           d="m 165.01501,25.842532 v 34.162471 h -1 v -7.591981 m 0,-0.909949 v -31.49807 h 1 v 4.988243"
           sodipodi:nodetypes="cccccccc" /><path
           style="fill:none;stroke:#000000;stroke-width:0.01;stroke-linecap:round;stroke-linejoin:round"
           d="m 20.005001,70.005 v -10 l -9.999999,-5 V 40.48357 m 0,-1.243909 V 25.005 l 9.999999,-5 v -10 h 4.181505 m 0.939292,0 h 29.633481 m 0.957491,0 h 35.705229 m 0.806044,0 h 35.763777 m 0.50364,0 h 34.61288 m 0.71271,0 h 10.20396 v 28.895414 m 0,1.470073 V 70.005 l -10.00943,5.3e-4"
           id="path48"
           sodipodi:nodetypes="ccccccccccccccccccccccc" /></g></g><rect
       style="display:none;fill:none;stroke:#ff0000;stroke-width:0.01;stroke-linecap:round;stroke-linejoin:round;stroke-dasharray:0.24, 0.24;stroke-opacity:1"
       id="rect21"
       width="210"
       height="276.30423"
       x="0"
       y="0"
       inkscape:label="frame" /><g
       id="g70"
       inkscape:label="wallPart"
       transform="translate(10.000005,85.001)"><g
         id="g55"
         inkscape:label="cut"><path
           d="M 36.018364,35.039623 V 14.0021 h 3.99586 v 2.40649 m 0,0.488606 V 39.99795 h -3.99586 v -4.504192"
           style="fill:none;stroke:#000000;stroke-width:0.0141355;stroke-dasharray:none"
           id="path49"
           sodipodi:nodetypes="cccccccc" /><use
           x="0"
           y="0"
           xlink:href="#path8-0"
           id="use49"
           transform="translate(36.010001)"
           style="stroke:#000000" /><use
           x="0"
           y="0"
           xlink:href="#path8-0"
           id="use50"
           transform="translate(71.999291,0.00707)"
           style="stroke:#000000" /><use
           x="0"
           y="0"
           xlink:href="#path8-0"
           id="use51"
           transform="translate(107.99871,0.00707)"
           style="stroke:#000000" /><path
           style="fill:none;stroke:#000000;stroke-width:0.01;stroke-linecap:round;stroke-linejoin:round"
           d="m 164.01428,69.99929 -7.99812,10.00629 h -9.38157 m -0.85377,0 h -9.76466 l -8,-10"
           id="path51"
           sodipodi:nodetypes="cccccc" /><use
           x="0"
           y="0"
           xlink:href="#path34"
           id="use52"
           transform="translate(-35.989288)"
           style="stroke:#000000" /><use
           x="0"
           y="0"
           xlink:href="#path34"
           id="use53"
           transform="translate(-71.999287)"
           style="stroke:#000000" /><use
           x="0"
           y="0"
           xlink:href="#path34"
           id="use54"
           transform="translate(-108.00044)"
           style="stroke:#000000" /><path
           id="path54"
           style="fill:none;stroke-width:0.01;stroke-linecap:round;stroke-linejoin:round"
           d="m 165.01501,25.842532 v 34.162471 h -1 v -7.591981 m 0,-0.909949 v -31.49807 h 1 v 4.988243"
           sodipodi:nodetypes="cccccccc" /><path
           style="fill:none;stroke:#000000;stroke-width:0.01;stroke-linecap:round;stroke-linejoin:round"
           d="m 20.005001,70.005 v -10 l -9.999999,-5 V 40.48357 m 0,-1.243909 V 25.005 l 9.999999,-5 v -10 h 4.181505 m 0.939292,0 h 29.633481 m 0.957491,0 h 35.705229 m 0.806044,0 h 35.763777 m 0.50364,0 h 34.61288 m 0.71271,0 h 10.20396 v 28.895414 m 0,1.470073 V 70.005 l -10.00943,5.3e-4"
           id="path55"
           sodipodi:nodetypes="ccccccccccccccccccccccc" /></g><g
         id="g62"
         inkscape:label="cut"><path
           d="M 36.018364,35.039623 V 14.0021 h 3.99586 v 2.40649 m 0,0.488606 V 39.99795 h -3.99586 v -4.504192"
           style="fill:none;stroke:#000000;stroke-width:0.0141355;stroke-dasharray:none"
           id="path56"
           sodipodi:nodetypes="cccccccc" /><use
           x="0"
           y="0"
           xlink:href="#path8-0"
           id="use56"
           transform="translate(36.010001)"
           style="stroke:#000000" /><use
           x="0"
           y="0"
           xlink:href="#path8-0"
           id="use57"
           transform="translate(71.999291,0.00707)"
           style="stroke:#000000" /><use
           x="0"
           y="0"
           xlink:href="#path8-0"
           id="use58"
           transform="translate(107.99871,0.00707)"
           style="stroke:#000000" /><path
           style="fill:none;stroke:#000000;stroke-width:0.01;stroke-linecap:round;stroke-linejoin:round"
           d="m 164.01428,69.99929 -7.99812,10.00629 h -9.38157 m -0.85377,0 h -9.76466 l -8,-10"
           id="path58"
           sodipodi:nodetypes="cccccc" /><use
           x="0"
           y="0"
           xlink:href="#path34"
           id="use59"
           transform="translate(-35.989288)"
           style="stroke:#000000" /><use
           x="0"
           y="0"
           xlink:href="#path34"
           id="use60"
           transform="translate(-71.999287)"
           style="stroke:#000000" /><use
           x="0"
           y="0"
           xlink:href="#path34"
           id="use61"
           transform="translate(-108.00044)"
           style="stroke:#000000" /><path
           id="path61"
           style="fill:none;stroke-width:0.01;stroke-linecap:round;stroke-linejoin:round"
           d="m 165.01501,25.842532 v 34.162471 h -1 v -7.591981 m 0,-0.909949 v -31.49807 h 1 v 4.988243"
           sodipodi:nodetypes="cccccccc" /><path
           style="fill:none;stroke:#000000;stroke-width:0.01;stroke-linecap:round;stroke-linejoin:round"
           d="m 20.005001,70.005 v -10 l -9.999999,-5 V 40.48357 m 0,-1.243909 V 25.005 l 9.999999,-5 v -10 h 4.181505 m 0.939292,0 h 29.633481 m 0.957491,0 h 35.705229 m 0.806044,0 h 35.763777 m 0.50364,0 h 34.61288 m 0.71271,0 h 10.20396 v 28.895414 m 0,1.470073 V 70.005 l -10.00943,5.3e-4"
           id="path62"
           sodipodi:nodetypes="ccccccccccccccccccccccc" /></g><g
         id="g69"
         inkscape:label="cut"><path
           d="M 36.018364,35.039623 V 14.0021 h 3.99586 v 2.40649 m 0,0.488606 V 39.99795 h -3.99586 v -4.504192"
           style="fill:none;stroke:#000000;stroke-width:0.0141355;stroke-dasharray:none"
           id="path63"
           sodipodi:nodetypes="cccccccc" /><use
           x="0"
           y="0"
           xlink:href="#path8-0"
           id="use63"
           transform="translate(36.010001)"
           style="stroke:#000000" /><use
           x="0"
           y="0"
           xlink:href="#path8-0"
           id="use64"
           transform="translate(71.999291,0.00707)"
           style="stroke:#000000" /><use
           x="0"
           y="0"
           xlink:href="#path8-0"
           id="use65"
           transform="translate(107.99871,0.00707)"
           style="stroke:#000000" /><path
           style="fill:none;stroke:#000000;stroke-width:0.01;stroke-linecap:round;stroke-linejoin:round"
           d="m 164.01428,69.99929 -7.99812,10.00629 h -9.38157 m -0.85377,0 h -9.76466 l -8,-10"
           id="path65"
           sodipodi:nodetypes="cccccc" /><use
           x="0"
           y="0"
           xlink:href="#path34"
           id="use66"
           transform="translate(-35.989288)"
           style="stroke:#000000" /><use
           x="0"
           y="0"
           xlink:href="#path34"
           id="use67"
           transform="translate(-71.999287)"
           style="stroke:#000000" /><use
           x="0"
           y="0"
           xlink:href="#path34"
           id="use68"
           transform="translate(-108.00044)"
           style="stroke:#000000" /><path
           id="path68"
           style="fill:none;stroke-width:0.01;stroke-linecap:round;stroke-linejoin:round"
           d="m 165.01501,25.842532 v 34.162471 h -1 v -7.591981 m 0,-0.909949 v -31.49807 h 1 v 4.988243"
           sodipodi:nodetypes="cccccccc" /><path
           style="fill:none;stroke:#000000;stroke-width:0.01;stroke-linecap:round;stroke-linejoin:round"
           d="m 20.005001,70.005 v -10 l -9.999999,-5 V 40.48357 m 0,-1.243909 V 25.005 l 9.999999,-5 v -10 h 4.181505 m 0.939292,0 h 29.633481 m 0.957491,0 h 35.705229 m 0.806044,0 h 35.763777 m 0.50364,0 h 34.61288 m 0.71271,0 h 10.20396 v 28.895414 m 0,1.470073 V 70.005 l -10.00943,5.3e-4"
           id="path69"
           sodipodi:nodetypes="ccccccccccccccccccccccc" /></g></g><g
       id="g91"
       inkscape:label="wallPart"
       transform="translate(10.000005,160.001)"><g
         id="g76"
         inkscape:label="cut"><path
           d="M 36.018364,35.039623 V 14.0021 h 3.99586 v 2.40649 m 0,0.488606 V 39.99795 h -3.99586 v -4.504192"
           style="fill:none;stroke:#000000;stroke-width:0.0141355;stroke-dasharray:none"
           id="path70"
           sodipodi:nodetypes="cccccccc" /><use
           x="0"
           y="0"
           xlink:href="#path8-0"
           id="use70"
           transform="translate(36.010001)"
           style="stroke:#000000" /><use
           x="0"
           y="0"
           xlink:href="#path8-0"
           id="use71"
           transform="translate(71.999291,0.00707)"
           style="stroke:#000000" /><use
           x="0"
           y="0"
           xlink:href="#path8-0"
           id="use72"
           transform="translate(107.99871,0.00707)"
           style="stroke:#000000" /><path
           style="fill:none;stroke:#000000;stroke-width:0.01;stroke-linecap:round;stroke-linejoin:round"
           d="m 164.01428,69.99929 -7.99812,10.00629 h -9.38157 m -0.85377,0 h -9.76466 l -8,-10"
           id="path72"
           sodipodi:nodetypes="cccccc" /><use
           x="0"
           y="0"
           xlink:href="#path34"
           id="use73"
           transform="translate(-35.989288)"
           style="stroke:#000000" /><use
           x="0"
           y="0"
           xlink:href="#path34"
           id="use74"
           transform="translate(-71.999287)"
           style="stroke:#000000" /><use
           x="0"
           y="0"
           xlink:href="#path34"
           id="use75"
           transform="translate(-108.00044)"
           style="stroke:#000000" /><path
           id="path75"
           style="fill:none;stroke-width:0.01;stroke-linecap:round;stroke-linejoin:round"
           d="m 165.01501,25.842532 v 34.162471 h -1 v -7.591981 m 0,-0.909949 v -31.49807 h 1 v 4.988243"
           sodipodi:nodetypes="cccccccc" /><path
           style="fill:none;stroke:#000000;stroke-width:0.01;stroke-linecap:round;stroke-linejoin:round"
           d="m 20.005001,70.005 v -10 l -9.999999,-5 V 40.48357 m 0,-1.243909 V 25.005 l 9.999999,-5 v -10 h 4.181505 m 0.939292,0 h 29.633481 m 0.957491,0 h 35.705229 m 0.806044,0 h 35.763777 m 0.50364,0 h 34.61288 m 0.71271,0 h 10.20396 v 28.895414 m 0,1.470073 V 70.005 l -10.00943,5.3e-4"
           id="path76"
           sodipodi:nodetypes="ccccccccccccccccccccccc" /></g><g
         id="g83"
         inkscape:label="cut"><path
           d="M 36.018364,35.039623 V 14.0021 h 3.99586 v 2.40649 m 0,0.488606 V 39.99795 h -3.99586 v -4.504192"
           style="fill:none;stroke:#000000;stroke-width:0.0141355;stroke-dasharray:none"
           id="path77"
           sodipodi:nodetypes="cccccccc" /><use
           x="0"
           y="0"
           xlink:href="#path8-0"
           id="use77"
           transform="translate(36.010001)"
           style="stroke:#000000" /><use
           x="0"
           y="0"
           xlink:href="#path8-0"
           id="use78"
           transform="translate(71.999291,0.00707)"
           style="stroke:#000000" /><use
           x="0"
           y="0"
           xlink:href="#path8-0"
           id="use79"
           transform="translate(107.99871,0.00707)"
           style="stroke:#000000" /><path
           style="fill:none;stroke:#000000;stroke-width:0.01;stroke-linecap:round;stroke-linejoin:round"
           d="m 164.01428,69.99929 -7.99812,10.00629 h -9.38157 m -0.85377,0 h -9.76466 l -8,-10"
           id="path79"
           sodipodi:nodetypes="cccccc" /><use
           x="0"
           y="0"
           xlink:href="#path34"
           id="use80"
           transform="translate(-35.989288)"
           style="stroke:#000000" /><use
           x="0"
           y="0"
           xlink:href="#path34"
           id="use81"
           transform="translate(-71.999287)"
           style="stroke:#000000" /><use
           x="0"
           y="0"
           xlink:href="#path34"
           id="use82"
           transform="translate(-108.00044)"
           style="stroke:#000000" /><path
           id="path82"
           style="fill:none;stroke-width:0.01;stroke-linecap:round;stroke-linejoin:round"
           d="m 165.01501,25.842532 v 34.162471 h -1 v -7.591981 m 0,-0.909949 v -31.49807 h 1 v 4.988243"
           sodipodi:nodetypes="cccccccc" /><path
           style="fill:none;stroke:#000000;stroke-width:0.01;stroke-linecap:round;stroke-linejoin:round"
           d="m 20.005001,70.005 v -10 l -9.999999,-5 V 40.48357 m 0,-1.243909 V 25.005 l 9.999999,-5 v -10 h 4.181505 m 0.939292,0 h 29.633481 m 0.957491,0 h 35.705229 m 0.806044,0 h 35.763777 m 0.50364,0 h 34.61288 m 0.71271,0 h 10.20396 v 28.895414 m 0,1.470073 V 70.005 l -10.00943,5.3e-4"
           id="path83"
           sodipodi:nodetypes="ccccccccccccccccccccccc" /></g><g
         id="g90"
         inkscape:label="cut"><path
           d="M 36.018364,35.039623 V 14.0021 h 3.99586 v 2.40649 m 0,0.488606 V 39.99795 h -3.99586 v -4.504192"
           style="fill:none;stroke:#000000;stroke-width:0.0141355;stroke-dasharray:none"
           id="path84"
           sodipodi:nodetypes="cccccccc" /><use
           x="0"
           y="0"
           xlink:href="#path8-0"
           id="use84"
           transform="translate(36.010001)"
           style="stroke:#000000" /><use
           x="0"
           y="0"
           xlink:href="#path8-0"
           id="use85"
           transform="translate(71.999291,0.00707)"
           style="stroke:#000000" /><use
           x="0"
           y="0"
           xlink:href="#path8-0"
           id="use86"
           transform="translate(107.99871,0.00707)"
           style="stroke:#000000" /><path
           style="fill:none;stroke:#000000;stroke-width:0.01;stroke-linecap:round;stroke-linejoin:round"
           d="m 164.01428,69.99929 -7.99812,10.00629 h -9.38157 m -0.85377,0 h -9.76466 l -8,-10"
           id="path86"
           sodipodi:nodetypes="cccccc" /><use
           x="0"
           y="0"
           xlink:href="#path34"
           id="use87"
           transform="translate(-35.989288)"
           style="stroke:#000000" /><use
           x="0"
           y="0"
           xlink:href="#path34"
           id="use88"
           transform="translate(-71.999287)"
           style="stroke:#000000" /><use
           x="0"
           y="0"
           xlink:href="#path34"
           id="use89"
           transform="translate(-108.00044)"
           style="stroke:#000000" /><path
           id="path89"
           style="fill:none;stroke-width:0.01;stroke-linecap:round;stroke-linejoin:round"
           d="m 165.01501,25.842532 v 34.162471 h -1 v -7.591981 m 0,-0.909949 v -31.49807 h 1 v 4.988243"
           sodipodi:nodetypes="cccccccc" /><path
           style="fill:none;stroke:#000000;stroke-width:0.01;stroke-linecap:round;stroke-linejoin:round"
           d="m 20.005001,70.005 v -10 l -9.999999,-5 V 40.48357 m 0,-1.243909 V 25.005 l 9.999999,-5 v -10 h 4.181505 m 0.939292,0 h 29.633481 m 0.957491,0 h 35.705229 m 0.806044,0 h 35.763777 m 0.50364,0 h 34.61288 m 0.71271,0 h 10.20396 v 28.895414 m 0,1.470073 V 70.005 l -10.00943,5.3e-4"
           id="path90"
           sodipodi:nodetypes="ccccccccccccccccccccccc" /></g></g></g></svg>
